<svg xmlns="http://www.w3.org/2000/svg" width="58" height="57" viewBox="0 0 58 57">
    <g fill="#F16C71">
        <path d="M56.422 22.3L44.08.965C43.546.042 42.364-.274 41.44.259h-.001L3.25 22.265H1.933c-1.067 0-1.933.864-1.933 1.93V55.07C0 56.136.866 57 1.933 57h54.134C57.134 57 58 56.136 58 55.07V24.194c-.001-.927-.664-1.723-1.578-1.894zm-33.432-.036L46.373 8.792l2.108 3.644-17.053 9.828H22.99zm26.459-8.157l4.72 8.157H35.295l14.154-8.157zM42.402 1.93l3.003 5.19-26.283 15.144H7.117L42.402 1.93zM1.933 55.07V24.194h54.134V55.07H1.933z"/>
        <path d="M48.321 42c-1.19.002-2.35.403-3.311 1.143-2.538-1.945-6.088-1.348-7.928 1.334-1.84 2.683-1.276 6.434 1.262 8.38 1.988 1.524 4.678 1.524 6.666 0 2.54 1.937 6.085 1.33 7.918-1.355 1.832-2.685 1.258-6.432-1.282-8.369C50.678 42.395 49.515 42 48.32 42zm-10.407 6c.004-2.213 1.704-4.004 3.797-4 .982.002 1.925.406 2.63 1.127 1.5 1.554 1.525 4.1.055 5.686l-.05.054c-1.502 1.542-3.9 1.505-5.36-.08-.686-.747-1.07-1.746-1.072-2.787zm10.407 4c-.691.002-1.37-.196-1.962-.572l.016-.03c.141-.22.27-.45.383-.688.027-.056.05-.11.075-.167.101-.224.188-.454.26-.69.009-.024.018-.046.025-.07.074-.254.131-.515.172-.778.01-.063.018-.127.026-.19.078-.54.078-1.09 0-1.629l-.027-.192c-.04-.262-.097-.521-.17-.776-.008-.026-.02-.052-.027-.078-.072-.23-.158-.455-.255-.674-.028-.062-.054-.123-.083-.183-.112-.234-.239-.46-.378-.677-.007-.01-.012-.023-.018-.034 1.791-1.138 4.116-.526 5.193 1.367s.498 4.35-1.293 5.49c-.585.37-1.254.569-1.937.57zM7 43L8 43 8 44 7 44zM10 43L11 43 11 44 10 44zM13 43L14 43 14 44 13 44zM19 43L20 43 20 44 19 44zM22 43L23 43 23 44 22 44zM25 43L26 43 26 44 25 44zM30 43L31 43 31 44 30 44zM33 43L34 43 34 44 33 44zM6 48L33 48 33 49 6 49zM7 36h6c1.105 0 2-.895 2-2v-4c0-1.105-.895-2-2-2H7c-1.105 0-2 .895-2 2v4c0 1.105.895 2 2 2zm0-6h6v4H7v-4zM21.941 34H51.06C52.13 34 53 33.254 53 32.333v-1.666c0-.92-.87-1.667-1.941-1.667H21.94C20.87 29 20 29.746 20 30.667v1.666c0 .92.87 1.667 1.941 1.667zm0-3.333H51.06v1.666H21.94v-1.666z"/>
    </g>
</svg>
