<svg xmlns="http://www.w3.org/2000/svg" width="18" height="16" viewBox="0 0 18 16">
    <g fill="#FFF" fill-rule="evenodd">
        <path d="M6.966 10.545h8.163l1.215-6.181H5.427l1.539 6.181zM15.75 12H6.375c-.347 0-.648-.23-.729-.556L3.748 3.822l-.006-.026-.583-2.341H.75C.336 1.455 0 1.13 0 .727 0 .327.336 0 .75 0h3c.346 0 .648.23.729.556l.586 2.353H17.25c.223 0 .435.098.578.266.142.167.2.385.159.6l-1.5 7.636c-.068.342-.377.589-.737.589zM9 15c0-.551-.447-1-1-1-.552 0-1 .449-1 1 0 .551.448 1 1 1 .553 0 1-.449 1-1M15 15c0-.551-.447-1-1-1-.552 0-1 .449-1 1 0 .551.448 1 1 1 .553 0 1-.449 1-1"/>
    </g>
</svg>
