<svg xmlns="http://www.w3.org/2000/svg" width="86" height="59" viewBox="0 0 86 59">
    <path fill="#F16C71" stroke="#FFF" d="M69.674 42.677c-2.052 0-4.002.8-5.473 2.248-1.471 1.464-2.292 3.37-2.292 5.414 0 2.043.804 3.95 2.292 5.414C65.689 57.2 67.621 58 69.674 58c4.208 0 7.629-3.44 7.629-7.661 0-4.223-3.42-7.662-7.629-7.662zm0 11.918c-2.36 0-4.344-1.94-4.344-4.256 0-2.316 1.984-4.257 4.344-4.257 2.327 0 4.208 1.907 4.208 4.257 0 2.35-1.881 4.256-4.208 4.256zm1.985-37.438c-.308-.29-.719-.443-1.146-.443h-8.775c-.94 0-1.71.766-1.71 1.703v13.96c0 .937.77 1.703 1.71 1.703H75.66c.94 0 1.71-.766 1.71-1.703V23.03c0-.476-.205-.936-.564-1.26l-5.148-4.613zm2.292 13.518H63.448V20.102h6.397l4.106 3.678v6.895zM27.905 42.677c-2.052 0-4.002.8-5.473 2.248-1.471 1.464-2.292 3.37-2.292 5.414 0 2.043.804 3.95 2.292 5.414C23.92 57.2 25.852 58 27.905 58c4.208 0 7.629-3.44 7.629-7.661 0-4.223-3.421-7.662-7.629-7.662zm0 11.918c-2.36 0-4.344-1.94-4.344-4.256 0-2.316 1.984-4.257 4.344-4.257 2.327 0 4.208 1.907 4.208 4.257 0 2.35-1.881 4.256-4.208 4.256zm-11.408-9.823h-3.438v-4.53c0-.936-.77-1.702-1.71-1.702-.942 0-1.711.766-1.711 1.703v6.231c0 .936.77 1.703 1.71 1.703h5.149c.94 0 1.71-.767 1.71-1.703s-.77-1.702-1.71-1.702zm8.672-9.28c0-.936-.77-1.702-1.71-1.702H2.71c-.94 0-1.71.766-1.71 1.703 0 .936.77 1.702 1.71 1.702h20.748c.94 0 1.71-.749 1.71-1.702zM6.183 29.348l20.747.119c.941 0 1.71-.75 1.728-1.686.017-.953-.753-1.72-1.693-1.72l-20.748-.118H6.2c-.941 0-1.71.749-1.71 1.685-.018.954.752 1.72 1.693 1.72zm3.489-7.73H30.42c.94 0 1.71-.766 1.71-1.702 0-.937-.77-1.703-1.71-1.703H9.672c-.94 0-1.71.766-1.71 1.703 0 .936.77 1.702 1.71 1.702zm74.695-2.298h0L72.12 9.223c-.308-.255-.684-.391-1.094-.391H56.624v-6.13c0-.936-.77-1.702-1.71-1.702H11.347c-.94 0-1.71.766-1.71 1.703v12.462c0 .936.77 1.702 1.71 1.702s1.71-.766 1.71-1.702V4.405H53.22v40.367H39.194c-.94 0-1.71.766-1.71 1.702 0 .936.77 1.703 1.71 1.703H60.08c.94 0 1.71-.767 1.71-1.703s-.77-1.702-1.71-1.702H56.64V12.237h13.786l11.152 9.193-.12 23.307h-1.778c-.941 0-1.71.767-1.71 1.703s.769 1.702 1.71 1.702h3.472c.94 0 1.71-.749 1.71-1.685L85 20.647c-.017-.51-.24-1.005-.633-1.328z"/>
</svg>
