<svg xmlns="http://www.w3.org/2000/svg" xmlns:xlink="http://www.w3.org/1999/xlink" width="138" height="35" viewBox="0 0 138 35">
    <defs>
        <path id="4uyn9j3gfa" d="M16.969.547l.322.003c9.224.175 16.647 7.82 16.647 17.224l-.003.327c-.172 9.363-7.702 16.9-16.966 16.9l-.322-.003C7.422 34.823-.001 27.178-.001 17.774-.001 8.26 7.596.547 16.969.547zM14.55 22.846c-.958 0-1.732.787-1.732 1.757 0 .921.699 1.679 1.59 1.752l.142.006c.907 0 1.651-.711 1.723-1.614l.006-.144c0-.922-.699-1.678-1.587-1.751l-.142-.006zm5.555 0c-.959 0-1.733.787-1.733 1.757 0 .921.699 1.679 1.59 1.752l.143.006c.906 0 1.65-.711 1.722-1.614l.006-.144c0-.922-.699-1.678-1.586-1.751l-.142-.006zm-8.951-12.79H7.737c-.652 0-1.189.468-1.253 1.067l-.007.122c0 .617.496 1.123 1.131 1.184l.129.006h2.347l.172 1.013.001.049.015.129 1.258 7.312c.092.535.552.938 1.112.993l.131.006h8.934c.65 0 1.188-.468 1.252-1.07l.007-.121c0-.616-.497-1.123-1.13-1.184l-.129-.006h-7.863l-.171-.998c0-.024-.001-.047-.003-.071l-.014-.121-.014-.079 9.116.001c.56 0 1.047-.35 1.205-.847l.03-.117.749-3.663c.061-.306-.005-.62-.182-.877l-.083-.107c-.21-.24-.509-.392-.831-.426l-.14-.007-10.905-.001-.204-1.189c-.094-.536-.553-.937-1.112-.992l-.131-.006zm10.827 4.569l-.264 1.281-8.486-.001-.22-1.281 8.97.001z"/>
        <path id="lp17yil6cb" d="M0.19 0.846L12.375 0.846 12.375 17.846 0.19 17.846z"/>
        <path id="5l86v4h10c" d="M128.932 23.545c1.752 0 2.947-.274 3.478-1.204v1.005h3.345v-5.172c0-2.88-1.336-3.76-5.23-3.76-1.734 0-3.004.232-3.842.44-.49.133-.905.282-1.245.44l1.104 2.075c.34-.108.713-.207 1.104-.299.672-.157 1.577-.307 2.564-.307 2.034 0 2.2.299 2.2.963-4.067-.299-7.678.473-7.678 2.939 0 1.793 1.328 2.88 4.2 2.88zm1.096-2.35c-1.37 0-1.95-.174-1.95-.705 0-.963 2.639-.988 4.332-.921v.456c0 .424-.465 1.17-2.382 1.17z"/>
        <path id="qwrcgraqmd" d="M109.3 23.595c.987 0 1.693-.125 2.166-.25.274-.074.506-.157.697-.248l-.905-2.125c-.14.041-.282.074-.431.1-.258.057-.606.09-.963.09-1.204 0-1.411-.473-1.411-1.8v-2.184h3.353v-2.515h-3.353V12.19h-3.346v2.474h-2.191v2.515h2.191v2.1c0 2.947.905 4.317 4.192 4.317zm7.204-.25V20.98l1.013-.789 2.988 3.155h4.084l-4.74-4.98 4.74-3.703h-4.532l-3.553 2.78v-6.681h-3.345v12.584h3.345z"/>
        <path id="3bkt3p2e8e" d="M97.173 23.595c1.885 0 3.146-.258 3.935-.515.465-.15.838-.324 1.112-.515l-1.403-1.9c-.24.09-.523.174-.846.249-.557.124-1.353.249-2.391.249-2.225 0-2.78-.557-2.78-.938h8.068c.157-3.628-1.57-5.81-5.612-5.81-4.084 0-5.802 2.174-5.802 4.59 0 2.332 1.502 4.59 5.72 4.59zm2.54-5.479H94.8c0-.58.73-1.27 2.457-1.27 1.727 0 2.457.69 2.457 1.27z"/>
        <path id="mttz3r9rqf" d="M50.134 23.595c1.885 0 3.146-.258 3.935-.515.465-.15.838-.324 1.112-.515l-1.403-1.9c-.24.09-.523.174-.846.249-.557.124-1.353.249-2.391.249-2.225 0-2.78-.557-2.78-.938h8.068c.157-3.628-1.57-5.81-5.612-5.81-4.084 0-5.802 2.174-5.802 4.59 0 2.332 1.502 4.59 5.72 4.59zm2.54-5.479H47.76c0-.58.73-1.27 2.457-1.27 1.727 0 2.457.69 2.457 1.27zm11.953 1.61v-2.349h-7.786v2.35h7.786zm7.214 3.869c.988 0 1.693-.125 2.166-.25.274-.074.507-.157.698-.248l-.905-2.125c-.141.041-.282.074-.432.1-.257.057-.606.09-.963.09-1.203 0-1.41-.473-1.41-1.8v-2.184h3.353v-2.515h-3.354V12.19H67.65v2.474h-2.191v2.515h2.19v2.1c0 2.947.906 4.317 4.193 4.317zm5.528-9.779c.897 0 1.627-.73 1.627-1.627 0-.896-.73-1.627-1.627-1.627-.896 0-1.627.731-1.627 1.627 0 .897.73 1.627 1.627 1.627zm1.677 9.53v-8.683H75.7v8.683h3.345z"/>
        <path id="lvqlwaabng" d="M83.853 23.346L83.853 20.98 84.866 20.191 87.854 23.346 91.938 23.346 87.198 18.365 91.938 14.663 87.406 14.663 83.853 17.444 83.853 10.762 80.508 10.762 80.508 23.346z"/>
    </defs>
    <g fill="none" fill-rule="evenodd">
        <use fill="#FFF" xlink:href="#4uyn9j3gfa"/>
        <g transform="translate(124.127 9.5)"/>
        <g fill-rule="nonzero">
            <use fill="#000" xlink:href="#5l86v4h10c"/>
            <use fill="#FEFEFE" xlink:href="#5l86v4h10c"/>
        </g>
        <g fill-rule="nonzero">
            <use fill="#000" xlink:href="#qwrcgraqmd"/>
            <use fill="#FEFEFE" xlink:href="#qwrcgraqmd"/>
        </g>
        <g fill-rule="nonzero">
            <use fill="#000" xlink:href="#3bkt3p2e8e"/>
            <use fill="#FEFEFE" xlink:href="#3bkt3p2e8e"/>
        </g>
        <g fill-rule="nonzero">
            <use fill="#000" xlink:href="#mttz3r9rqf"/>
            <use fill="#FEFEFE" xlink:href="#mttz3r9rqf"/>
        </g>
        <g fill-rule="nonzero">
            <use fill="#000" xlink:href="#lvqlwaabng"/>
            <use fill="#FEFEFE" xlink:href="#lvqlwaabng"/>
        </g>
    </g>
</svg>
