<svg id="prof" xmlns="http://www.w3.org/2000/svg" width="15.939" height="20.19" viewBox="0 0 15.939 20.19">
  <defs>
    <style>
      .cls-1 {
        fill: #fff;
      }
    </style>
  </defs>
  <path id="Path_5" data-name="Path 5" class="cls-1" d="M7.97,0A5.592,5.592,0,0,1,11.74,1.436a4.781,4.781,0,0,1,1.628,3.591A4.742,4.742,0,0,1,11.74,8.539a1.251,1.251,0,0,1-.343.319,8.47,8.47,0,0,1,2.314,1.436,7.452,7.452,0,0,1,2.228,5.427c0,2.234-2.142,3.591-4.885,4.23a19.28,19.28,0,0,1-3.085.239,20.087,20.087,0,0,1-3.085-.239C2.142,19.312,0,17.955,0,15.721a7.452,7.452,0,0,1,2.228-5.427A8.47,8.47,0,0,1,4.542,8.858L4.2,8.539h0A4.742,4.742,0,0,1,2.571,5.028,4.781,4.781,0,0,1,4.2,1.436h.086A5.374,5.374,0,0,1,7.97,0Zm4.285,11.651A6.022,6.022,0,0,0,7.97,9.975a6.022,6.022,0,0,0-4.285,1.676,5.217,5.217,0,0,0-1.714,4.07c0,1.2,1.457,2,3.342,2.394a15.089,15.089,0,0,0,2.657.319,14.174,14.174,0,0,0,2.657-.319c1.885-.4,3.342-1.2,3.342-2.394a5.217,5.217,0,0,0-1.714-4.07ZM10.369,2.793a3.223,3.223,0,0,0-2.4-.958,3.287,3.287,0,0,0-2.314.878l-.086.08A3.1,3.1,0,0,0,4.542,5.028,3.247,3.247,0,0,0,5.57,7.262a3.5,3.5,0,0,0,2.4.878,3.5,3.5,0,0,0,2.4-.878h0A3.247,3.247,0,0,0,11.4,5.028a3.1,3.1,0,0,0-1.028-2.234Z" transform="translate(0 0)"/>
</svg>
