<svg xmlns="http://www.w3.org/2000/svg" width="47" height="60" viewBox="0 0 47 60">
    <path fill="#F16C71" stroke="#FFF" d="M41.815 32.891l-11.516-4.923c-.376-.16-.622-.541-.62-.963V15.809c.005-1.858-.708-3.641-1.981-4.95-1.683-1.724-4.108-2.422-6.408-1.844-3.076.883-5.188 3.806-5.14 7.111v21.196l-3.697-3.829c-1.332-1.335-3.127-2.058-4.98-2.007-1.853.052-3.608.874-4.869 2.28-2.334 2.932-2.095 7.23.55 9.864L16.77 57.734c.78.813 1.843 1.269 2.95 1.266h18.56c1.926.003 3.603-1.36 4.057-3.299L45.8 41.026c.807-3.36-.89-6.824-3.985-8.135h0zm.908 7.358l-3.462 14.673c-.11.467-.513.796-.977.796h-18.57c-.268 0-.524-.109-.713-.304L5.385 41.311c-1.454-1.427-1.627-3.762-.401-5.403.657-.763 1.59-1.21 2.577-1.235.988-.026 1.94.373 2.634 1.101l6.429 6.653c.453.466 1.133.605 1.723.352.591-.254.977-.85.978-1.512V16.102c-.053-1.793 1.066-3.399 2.726-3.912 1.233-.32 2.538.056 3.434.99.67.695 1.046 1.638 1.04 2.62v11.197c-.004 1.75 1.015 3.33 2.578 3.996l11.515 4.924c1.644.702 2.54 2.547 2.105 4.332zM9.804 22.42c-1.823-4.026-1.823-8.684 0-12.71.705-1.6 1.68-3.055 2.876-4.3 5.687-5.871 14.885-5.881 20.583-.023 1.21 1.252 2.194 2.717 2.905 4.328 1.816 4.021 1.816 8.67 0 12.692-.367.83-1.316 1.196-2.118.815-.802-.38-1.155-1.363-.787-2.194 1.423-3.145 1.423-6.782 0-9.926-.55-1.254-1.313-2.395-2.25-3.37-4.457-4.589-11.655-4.589-16.112 0-.93.968-1.687 2.101-2.234 3.345-1.43 3.15-1.43 6.796 0 9.946.262.534.223 1.173-.103 1.668-.325.495-.886.767-1.461.71-.576-.058-1.076-.436-1.304-.986l.005.005z"/>
</svg>
